<?xml version="1.0" encoding="utf-8"?>
<!-- Generator: Adobe Illustrator 22.0.1, SVG Export Plug-In . SVG Version: 6.00 Build 0)  -->
<svg version="1.1" id="Capa_1" xmlns="http://www.w3.org/2000/svg" xmlns:xlink="http://www.w3.org/1999/xlink" x="0px" y="0px"
	 viewBox="0 0 20 20" style="enable-background:new 0 0 20 20;" xml:space="preserve">
<style type="text/css">
	.st0{fill:#FFFFFF;}
</style>
<path class="st0" d="M10,0.5c-5.2,0-9.5,4.3-9.5,9.5s4.3,9.5,9.5,9.5s9.5-4.3,9.5-9.5S15.2,0.5,10,0.5z M12.8,5.9
	c0,0.1-0.1,0.2-0.2,0.2h-1.2c-0.3,0-0.5,0.2-0.5,0.5v1.3h1.7c0.1,0,0.2,0.1,0.2,0.2l-0.2,1.8c0,0.1-0.1,0.1-0.2,0.1h-1.6v5.9
	c0,0.1-0.1,0.2-0.2,0.2h-2c-0.1,0-0.2-0.1-0.2-0.2V10l0,0H7.3c-0.1,0-0.2-0.1-0.2-0.2V8c0-0.1,0.1-0.2,0.2-0.2h1.1V6.2
	C8.4,5,9.4,4,10.6,4h2c0.1,0,0.2,0.1,0.2,0.2V5.9z"/>
</svg>
