<?xml version="1.0" encoding="utf-8"?>
<!-- Generator: Adobe Illustrator 22.0.1, SVG Export Plug-In . SVG Version: 6.00 Build 0)  -->
<svg version="1.1" id="Capa_1" xmlns="http://www.w3.org/2000/svg" xmlns:xlink="http://www.w3.org/1999/xlink" x="0px" y="0px"
	 viewBox="0 0 20 20" style="enable-background:new 0 0 20 20;" xml:space="preserve">
<style type="text/css">
	.st0{fill:#00A29A;}
	.st1{filter:url(#Adobe_OpacityMaskFilter);}
	.st2{filter:url(#Adobe_OpacityMaskFilter_1_);}
	.st3{mask:url(#SVGID_5_);fill:url(#SVGID_6_);}
	.st4{opacity:0.5;fill:url(#SVGID_7_);}
	.st5{filter:url(#Adobe_OpacityMaskFilter_2_);}
	.st6{filter:url(#Adobe_OpacityMaskFilter_3_);}
	.st7{mask:url(#SVGID_8_);fill:url(#SVGID_9_);}
	.st8{opacity:0.5;fill:url(#SVGID_10_);}
	.st9{fill:#212121;}
	.st10{fill:#EA4441;}
	.st11{fill:#8A0FA9;}
	.st12{fill:#2FDCD9;}
	.st13{fill:#FF5860;}
	.st14{fill:#B9FF00;}
	.st15{fill:#231F20;}
	.st16{fill:#1C2430;}
	.st17{fill:none;stroke:#212121;stroke-miterlimit:10;}
	.st18{fill:none;stroke:#EA4441;stroke-miterlimit:10;}
	.st19{fill:#606060;}
	.st20{fill:none;stroke:#B9FF00;stroke-width:3;stroke-miterlimit:10;}
	.st21{clip-path:url(#SVGID_12_);fill:none;stroke:#B9FF00;stroke-width:3;stroke-miterlimit:10;}
	.st22{fill:none;stroke:#212121;stroke-width:3;stroke-miterlimit:10;}
	.st23{clip-path:url(#SVGID_14_);fill:none;stroke:#212121;stroke-width:3;stroke-miterlimit:10;}
	.st24{clip-path:url(#SVGID_16_);fill:none;stroke:#212121;stroke-width:3;stroke-miterlimit:10;}
	.st25{fill:#E1AB38;}
	.st26{clip-path:url(#SVGID_20_);}
	.st27{clip-path:url(#SVGID_24_);}
	.st28{fill:#D48F00;}
	.st29{fill:#052158;}
	.st30{clip-path:url(#SVGID_30_);}
	.st31{clip-path:url(#SVGID_30_);fill:#FFFFFF;}
	.st32{fill-rule:evenodd;clip-rule:evenodd;fill:#052158;}
	.st33{fill:#FFFFFF;}
	.st34{fill:none;stroke:#F1F1F2;stroke-width:0.5;stroke-miterlimit:10;}
	.st35{clip-path:url(#SVGID_36_);}
	.st36{fill:#449DAE;}
	.st37{clip-path:url(#SVGID_36_);fill:#FFFFFF;}
	.st38{clip-path:url(#SVGID_40_);}
	.st39{opacity:0.79;clip-path:url(#SVGID_44_);}
	.st40{clip-path:url(#SVGID_44_);}
	.st41{fill:#E2DC37;}
	.st42{fill-rule:evenodd;clip-rule:evenodd;fill:#FFFFFF;}
	.st43{opacity:0.79;clip-path:url(#SVGID_50_);}
	.st44{clip-path:url(#SVGID_50_);}
	.st45{clip-path:url(#SVGID_50_);fill:#E2DC37;}
	.st46{clip-path:url(#SVGID_56_);}
	.st47{fill-rule:evenodd;clip-rule:evenodd;}
	.st48{clip-path:url(#SVGID_62_);}
	.st49{fill:#613080;}
	.st50{fill:none;stroke:#5B5B5F;stroke-width:0.75;stroke-miterlimit:10;}
</style>
<path class="st9" d="M10,0.5c-5.2,0-9.5,4.3-9.5,9.5c0,5.2,4.3,9.5,9.5,9.5s9.5-4.3,9.5-9.5C19.5,4.8,15.2,0.5,10,0.5z M12.8,5.9
	c0,0.1-0.1,0.2-0.2,0.2h-1.2c-0.3,0-0.5,0.2-0.5,0.5v1.3h1.7c0.1,0,0.2,0.1,0.2,0.2l-0.2,1.8c0,0.1-0.1,0.1-0.2,0.1h-1.6v5.9
	c0,0.1-0.1,0.2-0.2,0.2H8.6c-0.1,0-0.2-0.1-0.2-0.2V10V10H7.3c-0.1,0-0.2-0.1-0.2-0.2V8c0-0.1,0.1-0.2,0.2-0.2h1.1V6.2
	C8.4,5,9.4,4,10.6,4h2c0.1,0,0.2,0.1,0.2,0.2V5.9z"/>
</svg>
