<?xml version="1.0" encoding="utf-8"?>
<!-- Generator: Adobe Illustrator 22.0.1, SVG Export Plug-In . SVG Version: 6.00 Build 0)  -->
<svg version="1.1" id="Capa_1" xmlns="http://www.w3.org/2000/svg" xmlns:xlink="http://www.w3.org/1999/xlink" x="0px" y="0px"
	 viewBox="0 0 20 20" style="enable-background:new 0 0 20 20;" xml:space="preserve">
<style type="text/css">
	.st0{fill:#FFFFFF;}
</style>
<g>
	<path class="st0" d="M10,0.5c-5.2,0-9.5,4.3-9.5,9.5s4.3,9.5,9.5,9.5s9.5-4.3,9.5-9.5S15.2,0.5,10,0.5z M16.3,12.5
		c0,2.1-1.7,3.8-3.8,3.8h-5c-2.1,0-3.8-1.7-3.8-3.8v-5c0-2.1,1.7-3.8,3.8-3.8h5c2.1,0,3.8,1.7,3.8,3.8V12.5z"/>
	<path class="st0" d="M12.5,4.9h-5c-1.4,0-2.6,1.2-2.6,2.6v5c0,1.4,1.2,2.6,2.6,2.6h5c1.4,0,2.6-1.2,2.6-2.6v-5
		C15.1,6.1,14,4.9,12.5,4.9z M10.1,13.1C8.4,13.1,7,11.7,7,10s1.4-3.1,3.1-3.1s3.1,1.4,3.1,3.1C13.2,11.7,11.8,13.1,10.1,13.1z
		 M13.4,7.4c-0.4,0-0.7-0.3-0.7-0.7S13,6,13.4,6s0.7,0.3,0.7,0.7S13.8,7.4,13.4,7.4z"/>
	<path class="st0" d="M10.1,8c-1.1,0-2,0.9-2,2s0.9,2,2,2s2-0.9,2-2S11.2,8,10.1,8z"/>
</g>
</svg>
