<?xml version="1.0" encoding="utf-8"?>
<!-- Generator: Adobe Illustrator 22.0.1, SVG Export Plug-In . SVG Version: 6.00 Build 0)  -->
<svg version="1.1" id="Capa_1" xmlns="http://www.w3.org/2000/svg" xmlns:xlink="http://www.w3.org/1999/xlink" x="0px" y="0px"
	 viewBox="0 0 20 20" style="enable-background:new 0 0 20 20;" xml:space="preserve">
<style type="text/css">
	.st0{fill:#00A29A;}
	.st1{filter:url(#Adobe_OpacityMaskFilter);}
	.st2{filter:url(#Adobe_OpacityMaskFilter_1_);}
	.st3{mask:url(#SVGID_5_);fill:url(#SVGID_6_);}
	.st4{opacity:0.5;fill:url(#SVGID_7_);}
	.st5{filter:url(#Adobe_OpacityMaskFilter_2_);}
	.st6{filter:url(#Adobe_OpacityMaskFilter_3_);}
	.st7{mask:url(#SVGID_8_);fill:url(#SVGID_9_);}
	.st8{opacity:0.5;fill:url(#SVGID_10_);}
	.st9{fill:#212121;}
	.st10{fill:#EA4441;}
	.st11{fill:#8A0FA9;}
	.st12{fill:#2FDCD9;}
	.st13{fill:#FF5860;}
	.st14{fill:#B9FF00;}
	.st15{fill:#231F20;}
	.st16{fill:#1C2430;}
	.st17{fill:none;stroke:#212121;stroke-miterlimit:10;}
	.st18{fill:none;stroke:#EA4441;stroke-miterlimit:10;}
	.st19{fill:#606060;}
	.st20{fill:none;stroke:#B9FF00;stroke-width:3;stroke-miterlimit:10;}
	.st21{clip-path:url(#SVGID_12_);fill:none;stroke:#B9FF00;stroke-width:3;stroke-miterlimit:10;}
	.st22{fill:none;stroke:#212121;stroke-width:3;stroke-miterlimit:10;}
	.st23{clip-path:url(#SVGID_14_);fill:none;stroke:#212121;stroke-width:3;stroke-miterlimit:10;}
	.st24{clip-path:url(#SVGID_16_);fill:none;stroke:#212121;stroke-width:3;stroke-miterlimit:10;}
	.st25{fill:#E1AB38;}
	.st26{clip-path:url(#SVGID_20_);}
	.st27{clip-path:url(#SVGID_24_);}
	.st28{fill:#D48F00;}
	.st29{fill:#052158;}
	.st30{clip-path:url(#SVGID_30_);}
	.st31{clip-path:url(#SVGID_30_);fill:#FFFFFF;}
	.st32{fill-rule:evenodd;clip-rule:evenodd;fill:#052158;}
	.st33{fill:#FFFFFF;}
	.st34{fill:none;stroke:#F1F1F2;stroke-width:0.5;stroke-miterlimit:10;}
	.st35{clip-path:url(#SVGID_36_);}
	.st36{fill:#449DAE;}
	.st37{clip-path:url(#SVGID_36_);fill:#FFFFFF;}
	.st38{clip-path:url(#SVGID_40_);}
	.st39{opacity:0.79;clip-path:url(#SVGID_44_);}
	.st40{clip-path:url(#SVGID_44_);}
	.st41{fill:#E2DC37;}
	.st42{fill-rule:evenodd;clip-rule:evenodd;fill:#FFFFFF;}
	.st43{opacity:0.79;clip-path:url(#SVGID_50_);}
	.st44{clip-path:url(#SVGID_50_);}
	.st45{clip-path:url(#SVGID_50_);fill:#E2DC37;}
	.st46{clip-path:url(#SVGID_56_);}
	.st47{fill-rule:evenodd;clip-rule:evenodd;}
	.st48{clip-path:url(#SVGID_62_);}
	.st49{fill:#613080;}
	.st50{fill:none;stroke:#5B5B5F;stroke-width:0.75;stroke-miterlimit:10;}
</style>
<g>
	<path class="st9" d="M10,0.5c-5.2,0-9.5,4.3-9.5,9.5s4.3,9.5,9.5,9.5s9.5-4.3,9.5-9.5S15.2,0.5,10,0.5z M16.3,12.5
		c0,2.1-1.7,3.8-3.8,3.8h-5c-2.1,0-3.8-1.7-3.8-3.8v-5c0-2.1,1.7-3.8,3.8-3.8h5c2.1,0,3.8,1.7,3.8,3.8V12.5z"/>
	<path class="st9" d="M12.5,4.9h-5c-1.4,0-2.6,1.2-2.6,2.6v5c0,1.4,1.2,2.6,2.6,2.6h5c1.4,0,2.6-1.2,2.6-2.6v-5
		C15.1,6.1,14,4.9,12.5,4.9z M10.1,13.1C8.4,13.1,7,11.7,7,10c0-1.7,1.4-3.1,3.1-3.1c1.7,0,3.1,1.4,3.1,3.1
		C13.2,11.7,11.8,13.1,10.1,13.1z M13.4,7.4c-0.4,0-0.7-0.3-0.7-0.7S13,6,13.4,6c0.4,0,0.7,0.3,0.7,0.7S13.8,7.4,13.4,7.4z"/>
	<path class="st9" d="M10.1,8c-1.1,0-2,0.9-2,2s0.9,2,2,2s2-0.9,2-2S11.2,8,10.1,8z"/>
</g>
</svg>
